# xmcd
# Track frame offsets:
# 150
# 12332
# 21675
# 32072
# 44525
# 54837
# 67982
# 76330
# 88750
# 103170
#
# Disc length: 1485 seconds
# Revision: 0
# Processed by: cddbd v1.5.1PL2 Copyright (c) Steve Scherf et al.
# Submitted via: VisiTrax 2.10.0.248 - For more info visit www.synapsa.com
#
DISCID=7e05cb0a
DTITLE=Parton, Dolly - Jolene
DYEAR=1974
DGENRE=
TTITLE0=Jolene
TTITLE1=When Someone Wants To Leave
TTITLE2=River Of Happiness
TTITLE3=Early Morning Breeze
TTITLE4=Highlight Of My Life
TTITLE5=I Will Always Love You
TTITLE6=Randy
TTITLE7=Living On Memories Of You
TTITLE8=Lonely Comin' Down
TTITLE9=It Must Be You
EXTD=Buddha Records\n7446599675 2\nProduced by Bob Ferguson\nThis issue 199
EXTD=9
EXTT0=
EXTT1=
EXTT2=
EXTT3=
EXTT4=
EXTT5=
EXTT6=
EXTT7=
EXTT8=
EXTT9=
PLAYORDER=
